<?xml version="1.0" standalone="no"?>
<!DOCTYPE svg PUBLIC "-//W3C//DTD SVG 20010904//EN"
 "http://www.w3.org/TR/2001/REC-SVG-20010904/DTD/svg10.dtd">
<svg version="1.0" xmlns="http://www.w3.org/2000/svg"
 width="500.000000pt" height="500.000000pt" viewBox="0 0 500.000000 500.000000"
 preserveAspectRatio="xMidYMid meet">
<metadata>
Created by potrace 1.14, written by Peter Selinger 2001-2017
</metadata>
<g transform="translate(0.000000,500.000000) scale(0.100000,-0.100000)"
fill="#000000" stroke="none">
<path d="M0 4598 l1 -403 69 194 c79 222 112 278 210 355 131 104 205 142 400
207 l145 48 -412 0 -413 1 0 -402z"/>
<path d="M4484 4984 c21 -8 89 -23 150 -35 144 -26 226 -52 304 -95 l62 -35 0
91 0 90 -277 -1 c-253 0 -274 -2 -239 -15z"/>
<path d="M3330 4634 c-25 -2 -130 -8 -235 -14 -104 -6 -244 -17 -310 -25 -135
-17 -462 -20 -600 -5 -49 5 -173 14 -274 20 -283 17 -408 3 -701 -80 -58 -17
-107 -22 -215 -24 -134 -2 -142 -3 -193 -31 -154 -84 -280 -305 -343 -601 -21
-101 -30 -258 -17 -305 6 -20 3 -33 -11 -50 -19 -24 -21 -24 -225 -24 l-206 0
0 -1747 0 -1748 2500 0 2500 0 -1 2078 0 2077 -105 68 c-111 74 -276 163 -361
196 -28 11 -107 31 -175 45 -100 21 -144 36 -233 81 -166 83 -188 87 -490 90
-143 1 -280 1 -305 -1z"/>
</g>
</svg>
