<svg width="282" height="271" viewBox="0 0 282 271" fill="none" xmlns="http://www.w3.org/2000/svg">
<path d="M59.889 159.961C147.221 104.346 301.109 46.7726 230.718 21.4866C128.089 -15.3802 63.6859 3.00001 30.5 31.5C-2.68586 60 -7.56533 120.844 16.718 137.854C25.8874 144.277 39.9663 153.692 59.889 159.961ZM59.889 159.961C65.0461 161.584 70.343 163.157 76.2995 164.252M69.2483 168.66C29.251 194.132 4.36457 218.617 20.2278 239.978C70.7276 307.978 97.7467 237.484 184.228 251.478C270.708 265.471 331.227 90.9775 220.728 145.978C151.952 180.21 102.087 178.995 69.2483 168.66ZM69.2483 168.66C64.0432 167.022 59.3155 165.13 55.0075 163.114M76.2995 164.252C164.595 110.006 309.76 54.2285 241.228 29.61C138.598 -7.25679 74.1955 11.1234 41.0096 39.6234C7.82374 68.1234 2.94427 128.967 27.2276 145.978C34.0013 150.723 42.8266 157.414 55.0075 163.114M76.2995 164.252C108.271 170.13 152.244 166.71 210.218 137.854C320.718 82.8542 260.199 257.348 173.718 243.354C87.2372 229.36 60.218 299.854 9.71821 231.854C-5.48999 211.376 17.8129 187.496 55.0075 163.114" stroke="#922D2D"/>
</svg>
